<svg id="svg" version="1.1" xmlns="http://www.w3.org/2000/svg" xmlns:xlink="http://www.w3.org/1999/xlink" width="400" height="250" viewBox="0, 0, 400,250"><g id="svgg"><path id="path0" d="M36.250 34.706 C 18.556 37.928,20.407 63.625,38.333 63.625 C 55.079 63.625,58.425 40.184,42.396 35.168 C 41.176 34.786,37.378 34.501,36.250 34.706 M42.026 38.130 C 49.138 40.578,52.187 49.162,48.142 55.352 C 41.751 65.132,26.777 60.796,26.777 49.167 C 26.777 41.225,34.589 35.571,42.026 38.130 M8.380 62.408 L 7.917 62.732 7.917 82.708 L 7.917 102.685 8.380 103.009 C 8.968 103.421,9.573 103.421,10.162 103.009 L 10.625 102.685 10.625 82.708 L 10.625 62.732 10.162 62.408 C 9.907 62.229,9.506 62.083,9.271 62.083 C 9.035 62.083,8.634 62.229,8.380 62.408 M376.488 80.387 C 375.199 81.676,376.143 82.802,378.664 82.983 C 384.717 83.416,390.255 86.665,393.648 91.771 C 401.282 103.261,395.586 118.448,382.188 122.326 L 380.521 122.809 351.050 122.868 L 321.579 122.926 321.102 123.375 C 320.486 123.953,320.491 124.802,321.113 125.386 L 321.601 125.844 351.269 125.786 L 380.938 125.728 382.997 125.149 C 403.656 119.339,406.038 90.957,386.618 81.985 C 383.139 80.378,377.402 79.473,376.488 80.387 M65.729 80.725 C 50.042 84.185,52.396 107.158,68.438 107.158 C 74.477 107.158,79.292 103.715,81.193 98.037 L 81.757 96.354 81.830 88.883 L 81.904 81.411 81.436 80.914 C 80.841 80.281,79.998 80.274,79.411 80.899 C 78.966 81.373,78.958 81.489,78.955 88.138 C 78.951 96.972,78.590 98.488,75.831 101.247 C 68.440 108.638,55.842 101.642,58.237 91.478 C 59.301 86.965,63.688 83.355,68.131 83.336 C 69.241 83.332,69.792 82.847,69.792 81.875 C 69.792 80.445,68.570 80.099,65.729 80.725 M340.875 140.477 C 340.282 141.107,340.292 141.893,340.899 142.464 L 341.381 142.917 363.076 142.917 C 386.553 142.917,385.958 142.889,388.502 144.096 C 397.942 148.577,396.138 163.064,385.875 165.188 C 379.410 166.526,372.708 161.077,372.708 154.482 C 372.708 152.928,371.223 152.149,370.245 153.191 C 369.368 154.123,369.878 157.518,371.344 160.521 C 376.393 170.861,391.107 170.861,396.156 160.521 C 399.971 152.708,396.190 143.436,388.066 140.684 L 386.354 140.104 363.843 140.047 L 341.333 139.989 340.875 140.477 M13.438 147.427 C 4.253 148.889,-1.619 158.169,1.111 166.908 C 3.125 173.352,9.652 177.982,16.079 177.525 C 17.022 177.458,17.456 175.819,16.710 175.144 C 16.479 174.934,15.665 174.730,14.565 174.605 C 3.978 173.402,-0.394 160.939,7.209 153.634 C 13.612 147.482,24.368 150.102,27.459 158.566 L 28.021 160.104 28.078 182.492 L 28.136 204.881 28.583 205.357 C 29.159 205.969,30.010 205.967,30.589 205.351 L 31.042 204.869 31.042 182.947 C 31.042 158.478,31.086 159.307,29.598 156.146 C 26.731 150.056,19.939 146.392,13.438 147.427 M373.161 180.066 C 372.423 180.851,372.650 183.398,373.695 186.042 C 378.151 197.324,394.141 197.324,398.597 186.042 C 399.662 183.344,399.879 180.767,399.101 180.036 C 398.088 179.085,396.667 179.826,396.667 181.305 C 396.667 186.706,391.633 191.661,386.146 191.661 C 380.644 191.661,375.625 186.706,375.625 181.276 C 375.625 179.802,374.109 179.057,373.161 180.066 " stroke="none" fill="#ffffff" fill-rule="evenodd"></path><path id="path1" d="M169.167 0.297 C 169.167 0.876,170.391 3.979,171.243 5.557 C 174.074 10.805,179.386 14.816,185.313 16.179 C 187.854 16.764,212.355 16.764,214.896 16.179 C 222.082 14.526,227.842 9.380,230.424 2.306 C 231.298 -0.089,231.321 -0.030,229.550 0.043 L 228.059 0.104 227.703 1.154 C 225.601 7.352,220.310 12.025,213.898 13.349 C 210.980 13.951,189.229 13.951,186.310 13.349 C 179.899 12.025,174.608 7.352,172.505 1.154 L 172.149 0.104 170.658 0.043 C 169.438 -0.007,169.167 0.039,169.167 0.297 M387.064 0.380 C 388.591 3.235,395.266 6.667,399.289 6.667 L 400.000 6.667 400.000 5.237 L 400.000 3.808 398.670 3.671 C 396.215 3.420,393.471 2.280,391.527 0.704 C 390.467 -0.156,386.628 -0.435,387.064 0.380 M382.607 20.554 C 375.406 22.097,371.667 27.561,371.667 36.539 L 371.667 40.178 372.216 40.610 C 372.518 40.847,372.927 41.042,373.125 41.042 C 373.323 41.042,373.732 40.847,374.034 40.610 L 374.583 40.178 374.586 36.599 C 374.591 31.116,375.386 28.746,378.056 26.248 C 384.320 20.388,394.389 23.383,396.346 31.688 C 396.614 32.822,396.661 35.753,396.664 51.370 L 396.667 69.719 397.149 70.172 C 397.774 70.760,398.562 70.748,399.130 70.143 L 399.583 69.661 399.583 51.280 C 399.583 30.709,399.607 31.088,398.126 28.021 C 395.357 22.285,388.940 19.197,382.607 20.554 M347.399 51.286 C 344.143 51.907,340.620 54.615,339.074 57.684 C 336.585 62.629,337.472 71.351,340.172 68.476 C 340.592 68.029,340.625 67.785,340.625 65.082 C 340.625 57.239,345.621 52.569,352.184 54.279 C 356.877 55.501,359.163 59.006,359.170 64.992 C 359.177 69.956,360.120 72.641,362.802 75.323 C 369.534 82.055,380.976 78.904,383.338 69.667 C 383.985 67.140,383.942 62.128,383.268 61.495 C 381.725 60.045,380.833 61.234,380.833 64.743 C 380.833 72.279,376.328 76.960,370.101 75.894 C 364.750 74.977,362.083 71.246,362.083 64.677 C 362.083 55.509,355.714 49.701,347.399 51.286 M24.828 76.732 L 24.375 77.214 24.375 102.034 C 24.375 128.694,24.400 128.065,23.260 130.415 C 19.021 139.155,5.541 137.474,3.563 127.958 C 2.322 121.988,7.285 115.625,13.182 115.625 C 14.560 115.625,15.200 115.125,15.205 114.043 C 15.211 112.906,14.651 112.627,12.652 112.768 C 1.551 113.551,-3.586 127.194,4.243 135.100 C 10.706 141.626,21.820 139.952,25.813 131.852 C 27.352 128.728,27.284 130.105,27.288 102.172 L 27.292 77.156 26.809 76.703 C 26.184 76.115,25.397 76.127,24.828 76.732 M364.097 95.645 C 353.504 97.193,345.028 105.620,343.435 116.187 C 342.974 119.245,343.017 120.451,343.607 121.005 C 344.719 122.050,346.041 121.215,346.043 119.466 C 346.049 110.916,352.333 102.323,360.636 99.508 C 363.815 98.431,365.063 98.333,375.720 98.333 L 385.552 98.333 386.005 97.851 C 386.593 97.226,386.581 96.438,385.976 95.870 C 385.459 95.383,367.172 95.196,364.097 95.645 " stroke="none" fill="#f4b2b0" fill-rule="evenodd"></path><path id="path2" d="M34.710 18.748 C 19.878 20.622,8.749 32.330,7.783 47.076 C 7.614 49.645,7.862 50.208,9.160 50.208 C 10.190 50.208,10.625 49.652,10.625 48.334 C 10.625 24.980,40.693 12.679,57.610 29.111 C 75.001 46.002,64.268 74.687,40.000 76.178 C 37.557 76.328,37.083 76.576,37.083 77.708 C 37.083 79.033,37.625 79.260,40.374 79.084 C 65.681 77.466,78.181 48.081,61.674 29.010 C 55.238 21.574,44.547 17.506,34.710 18.748 M12.500 192.637 C -2.697 194.987,-4.031 216.172,10.729 220.757 C 12.661 221.358,46.297 221.358,48.229 220.757 C 63.802 215.919,61.222 193.497,44.986 192.568 L 42.785 192.442 42.330 193.020 C 41.290 194.342,42.105 195.417,44.148 195.417 C 57.559 195.417,60.140 214.604,47.176 217.920 C 44.671 218.560,14.287 218.560,11.783 217.920 C -1.182 214.604,1.399 195.417,14.810 195.417 C 16.085 195.417,16.261 195.364,16.652 194.868 C 18.017 193.132,16.069 192.085,12.500 192.637 " stroke="none" fill="#182e35" fill-rule="evenodd"></path></g></svg>